<?xml version="1.0" encoding="UTF-8"?>
<svg version="1.1" xmlns="http://www.w3.org/2000/svg" width="512" height="512">
<path d="M0 0 C1.52504014 -0.00551503 1.52504014 -0.00551503 3.08088917 -0.01114148 C6.49223994 -0.02216623 9.90356024 -0.02602013 13.31492615 -0.02983093 C15.75921729 -0.03609652 18.20350748 -0.04274341 20.64779663 -0.04974365 C27.98584064 -0.06895993 35.32387656 -0.0795704 42.66193834 -0.08847144 C46.12167173 -0.09285962 49.5814036 -0.09822506 53.04113579 -0.10346031 C64.54917998 -0.12046967 76.05722323 -0.13496236 87.56527805 -0.14220905 C90.54953576 -0.1441188 93.53379347 -0.14603915 96.51805115 -0.147995 C97.25972961 -0.14847874 98.00140807 -0.14896248 98.76556163 -0.14946087 C110.77199091 -0.15775574 122.77832039 -0.18308475 134.78470612 -0.21557567 C147.12465977 -0.24869572 159.46456277 -0.26666228 171.80456108 -0.26985329 C178.7276354 -0.27201385 185.65056418 -0.28069561 192.57359505 -0.30631447 C199.08989215 -0.33037321 205.6059752 -0.33381619 212.12232399 -0.32355309 C214.50871908 -0.32305834 216.89512716 -0.32936062 219.2814827 -0.34310913 C236.31799649 -0.435738 249.77551972 0.07078194 262.98851013 12.14717102 C273.6160003 23.77489556 275.59347017 36.21370352 275.50608826 51.4655304 C275.51152054 53.0734317 275.51864936 54.68132803 275.52732849 56.28921509 C275.54543345 60.62194282 275.53854789 64.95428599 275.52581215 69.28701973 C275.51561746 73.84177235 275.52509566 78.39649413 275.53135681 82.95124817 C275.53861451 90.59718173 275.52909502 98.24296026 275.50999451 105.88887024 C275.48822937 114.70267395 275.49528208 123.51610742 275.51730013 132.32990217 C275.53550786 139.9252053 275.53798629 147.52039758 275.52754545 155.1157155 C275.52133995 159.63982738 275.52039315 164.16376578 275.53369141 168.68786621 C275.54532792 172.94313905 275.53708341 177.19793898 275.51411438 181.45316124 C275.50886862 183.00585333 275.51026933 184.5585859 275.51916504 186.11126137 C275.5938183 200.47633514 272.96647117 212.54593178 262.98851013 223.30342102 C255.82614616 230.15882654 246.67678421 235.25765423 236.57585049 235.2813921 C235.6933709 235.28584994 234.81089131 235.29030779 233.90166992 235.29490072 C232.93641468 235.29471635 231.97115945 235.29453199 230.97665405 235.29434204 C229.43346122 235.29985707 229.43346122 235.29985707 227.85909277 235.30548352 C224.40084341 235.31652432 220.94262409 235.3203649 217.48435974 235.32417297 C215.00903732 235.33043737 212.53371583 235.33708415 210.05839539 235.34408569 C202.6220516 235.36331535 195.1857158 235.37391476 187.74935445 235.38281348 C184.24466113 235.3871996 180.73996931 235.39256562 177.23527718 235.39780235 C165.57972369 235.4148139 153.92417113 235.4293067 142.26860714 235.43655109 C139.2449843 235.43846089 136.22136146 235.44038124 133.19773865 235.44233704 C132.07052147 235.44306265 132.07052147 235.44306265 130.92053223 235.44380292 C118.75493454 235.4520981 106.58943534 235.47742665 94.42388063 235.50991771 C81.92463175 235.54302689 69.42543284 235.56100338 56.92613989 235.56419533 C49.91198052 235.566357 42.89796473 235.57505497 35.88384819 235.60065651 C29.28220743 235.62469725 22.68077802 235.628165 16.0790863 235.61789513 C13.660021 235.61739996 11.24094294 235.62371455 8.82191658 235.63745117 C5.51072107 235.65519736 2.20044872 235.64804964 -1.11074829 235.63491821 C-2.06038848 235.64588746 -3.01002866 235.6568567 -3.98844582 235.66815835 C-15.07914874 235.56250213 -24.67222772 231.37642899 -33.01148987 224.14717102 C-44.57870905 211.82653143 -46.31639394 198.95037648 -46.28614807 182.62837219 C-46.29050184 181.07017779 -46.2956872 179.51198552 -46.30163574 177.95379639 C-46.31496674 173.74288975 -46.31561092 169.5320732 -46.31307244 165.32114959 C-46.31199853 161.79514106 -46.31689691 158.26915044 -46.32167786 154.74314576 C-46.33275306 146.41809027 -46.33322193 138.09307991 -46.3271637 129.76802063 C-46.32112758 121.20484617 -46.33343029 112.64183617 -46.35473377 104.07868975 C-46.37239937 96.70427351 -46.37834325 89.32990937 -46.37509602 81.95547277 C-46.37329062 77.56100031 -46.37584447 73.16664513 -46.38981056 68.772192 C-46.40246501 64.63605985 -46.40037351 60.50018235 -46.38739967 56.36405373 C-46.38505067 54.85489436 -46.38770769 53.34571665 -46.3960228 51.83657837 C-46.47500896 36.37379155 -44.07160544 23.74087062 -33.51148987 11.95967102 C-24.00268076 2.91066893 -12.69294807 -0.0024633 0 0 Z M105.98851013 50.14717102 C104.40184036 52.90678891 103.22357034 55.80505224 102.01194763 58.74482727 C101.25258824 60.45153917 100.48944344 62.15657095 99.72288513 63.86006165 C98.53305752 66.52908804 97.36784305 69.19903997 96.26487732 71.90522766 C90.26845249 86.48113209 90.26845249 86.48113209 84.8535614 89.23161316 C80.03276256 90.70005625 75.19901636 91.01049161 70.18254089 91.09666443 C67.32303293 91.16249031 64.54301246 91.54193759 61.71507263 91.95576477 C59.13289682 92.27757325 56.55167847 92.59146521 53.96507263 92.87568665 C48.87798642 93.53095918 45.69807087 94.31198771 41.98851013 98.14717102 C40.4142826 101.29562608 40.3192267 104.73935174 40.98851013 108.14717102 C43.50995415 111.83722951 46.43644072 114.51200033 49.92601013 117.27217102 C53.16833227 119.86340691 56.38262532 122.4657468 59.52757263 125.17451477 C60.11417664 125.67902161 60.70078064 126.18352844 61.30516052 126.70332336 C62.45587152 127.69617567 63.60357822 128.69252221 64.74803162 129.69258118 C67.47713368 132.32281702 67.47713368 132.32281702 70.98851013 133.14717102 C70.71587341 134.38281799 70.44323669 135.61846497 70.16233826 136.89155579 C69.14862546 141.49510482 68.14454414 146.10071099 67.14329529 150.70698547 C66.70938035 152.6968139 66.27288769 154.6860821 65.83372498 156.67475891 C65.20137372 159.5404142 64.57845129 162.40798482 63.95726013 165.27607727 C63.76039612 166.158647 63.5635321 167.04121674 63.36070251 167.95053101 C61.32899112 176.64270713 61.32899112 176.64270713 63.55101013 184.95967102 C66.79657949 187.87236147 68.61339296 188.72377258 72.98851013 189.14717102 C79.90753707 186.51293543 86.22946072 182.26922105 92.42601013 178.27217102 C93.24859314 177.74985901 94.07117615 177.227547 94.91868591 176.68940735 C98.47200289 174.42931865 102.00769799 172.15229055 105.48460388 169.77607727 C106.43464294 169.13541321 107.38468201 168.49474915 108.36351013 167.83467102 C109.15499451 167.28166321 109.94647888 166.7286554 110.76194763 166.15888977 C113.65321078 164.84514038 114.95670103 165.32265476 117.98851013 166.14717102 C120.04637146 167.2035675 120.04637146 167.2035675 122.07054138 168.51826477 C122.83020203 169.00577209 123.58986267 169.49327942 124.37254333 169.99555969 C125.17393738 170.51996643 125.97533142 171.04437317 126.80101013 171.58467102 C128.49888033 172.67328516 130.19679782 173.76182555 131.89476013 174.85029602 C134.37882217 176.45552702 136.86067805 178.0640377 139.34007263 179.6764679 C141.48855999 181.07073887 143.64426713 182.45321943 145.80101013 183.83467102 C146.4394989 184.25611389 147.07798767 184.67755676 147.73582458 185.11177063 C151.47049931 187.49768857 154.53950543 188.8914811 158.98851013 189.14717102 C162.61983629 187.54263156 165.20287986 185.71843156 166.98851013 182.14717102 C167.5609694 176.06829184 166.64190372 170.41687746 165.20335388 164.53388977 C164.93344383 163.36863518 164.93344383 163.36863518 164.65808105 162.17984009 C164.0900361 159.72915651 163.50955801 157.28170593 162.92601013 154.83467102 C162.15380976 151.59092249 161.39388726 148.34463405 160.64085388 145.09638977 C160.46070236 144.35781235 160.28055084 143.61923492 160.09494019 142.85827637 C158.55356311 136.20768207 158.55356311 136.20768207 159.98851013 133.14717102 C161.3044281 131.64253235 161.3044281 131.64253235 162.98069763 130.22920227 C163.59848083 129.70133118 164.21626404 129.17346008 164.85276794 128.6295929 C165.51631287 128.07851868 166.17985779 127.52744446 166.86351013 126.95967102 C167.53736755 126.38668274 168.21122498 125.81369446 168.90550232 125.2233429 C172.009767 122.59450614 175.14414433 120.00766708 178.32444763 117.47138977 C179.28608826 116.70439758 180.24772888 115.9374054 181.23851013 115.14717102 C182.08929138 114.48717102 182.94007263 113.82717102 183.81663513 113.14717102 C186.17545195 110.97502316 187.58230904 109.02328458 188.98851013 106.14717102 C189.0688982 101.64543938 188.62454922 99.8130711 185.49241638 96.53388977 C181.60163419 93.47796241 177.67697474 93.00374864 172.86351013 92.45967102 C172.00273865 92.34647522 171.14196716 92.23327942 170.25511169 92.11665344 C167.50211322 91.76492573 164.74732298 91.44976903 161.98851013 91.14717102 C161.03685974 91.04275696 160.08520935 90.9383429 159.10472107 90.83076477 C153.40365246 90.21862149 147.69900526 89.66354558 141.98851013 89.14717102 C141.73037537 88.31000549 141.4722406 87.47283997 141.20628357 86.61030579 C139.88399448 82.84994679 138.25812718 79.30861674 136.50413513 75.73701477 C136.16605835 75.04708939 135.82798157 74.357164 135.47966003 73.64633179 C134.76583679 72.19552534 134.04967 70.74586985 133.33128357 69.2973175 C132.24305846 67.09388048 131.174437 64.88159479 130.10569763 62.6686554 C129.40637257 61.25335038 128.70588943 59.83861687 128.00413513 58.42451477 C127.69139648 57.76918259 127.37865784 57.1138504 127.05644226 56.43865967 C124.73352138 51.83674306 122.22969583 49.11621007 117.98851013 46.14717102 C112.40238706 45.26515159 109.95045495 46.23447374 105.98851013 50.14717102 Z " fill="#202020" transform="translate(88.01148986816406,84.85282897949219)"/>
<path d="M0 0 C9.6918566 1.48895155 17.98036385 6.6377053 23.8828125 14.51171875 C30.52716489 24.47824733 32.45073428 32.6972101 32.40405273 44.60961914 C32.41434761 46.46035538 32.41434761 46.46035538 32.42485046 48.34848022 C32.43994542 51.71067316 32.44163068 55.07230823 32.43590808 58.4344933 C32.43279872 61.25678836 32.43892874 64.07903428 32.44494683 66.90132231 C32.45896208 73.57252207 32.45745903 80.24359374 32.44604492 86.91479492 C32.43459772 93.75568525 32.44858856 100.59618195 32.4754414 107.43702036 C32.49774179 113.34316326 32.50420291 119.24918395 32.49836498 125.15536588 C32.4950244 128.66805056 32.49721237 132.18048383 32.51461601 135.6931324 C32.59926666 154.57863569 32.00071996 170.98183201 23 188 C22.50886719 188.96292969 22.01773437 189.92585937 21.51171875 190.91796875 C11.27988414 209.79436053 -6.60339394 223.92760157 -27.07421875 230.3515625 C-36.24451143 232.98044694 -45.16908443 234.15117806 -54.67060852 234.14044189 C-55.50681093 234.14341302 -56.34301334 234.14638414 -57.20455521 234.1494453 C-59.98704782 234.15806864 -62.76949708 234.1596351 -65.55200195 234.16113281 C-67.55501394 234.1657654 -69.55802506 234.17079066 -71.56103516 234.17617798 C-76.98881253 234.18925924 -82.41657756 234.19573827 -87.84436822 234.20018864 C-91.23891568 234.20312555 -94.63345982 234.20723146 -98.0280056 234.21169281 C-108.65919996 234.22535488 -119.29038666 234.23502852 -129.9215892 234.2388947 C-142.17504737 234.24337602 -154.42839403 234.26093284 -166.68181831 234.2898953 C-176.16742565 234.31153435 -185.65300167 234.32160013 -195.13863343 234.32293582 C-200.79790841 234.32398201 -206.45707838 234.32985059 -212.11632729 234.34775543 C-217.44089607 234.36427512 -222.76528131 234.36637268 -228.08986664 234.35761642 C-230.03806488 234.35684821 -231.98627317 234.36116018 -233.93444633 234.37107468 C-250.02419319 234.44812179 -263.9008126 232.98554849 -276.37109375 221.73046875 C-281.41153079 216.37575986 -287 208.5795236 -287 201 C-285.17036193 200.99641747 -285.17036193 200.99641747 -283.30376148 200.99276257 C-254.30988461 200.93532795 -225.31607468 200.86254448 -196.32228668 200.77101372 C-192.74895644 200.75974637 -189.17562581 200.74860779 -185.60229492 200.73754883 C-184.53527458 200.7342433 -184.53527458 200.7342433 -183.44669827 200.730871 C-171.94830811 200.69555674 -160.44991802 200.67065953 -148.95149384 200.64965298 C-137.14162826 200.62784403 -125.33183269 200.59474554 -113.52202672 200.55129844 C-106.893452 200.52723297 -100.26493533 200.50864814 -93.6363163 200.50238609 C-87.39090221 200.4963212 -81.14568568 200.47627023 -74.90034485 200.44572449 C-72.61437542 200.43696683 -70.32838015 200.43321694 -68.04239464 200.43499184 C-49.47395237 200.44485246 -34.13161625 199.1869942 -18.6875 187.75 C-3.22448464 171.92737963 -0.71292806 154.15375426 -0.68115234 132.82470703 C-0.67182539 131.364527 -0.66165276 129.90435217 -0.65071106 128.44418335 C-0.62370825 124.52779283 -0.60835127 120.61143765 -0.59528303 116.69497919 C-0.57952051 112.58436239 -0.55277307 108.47381644 -0.5272522 104.36325073 C-0.48069444 96.60056388 -0.44383996 88.83786334 -0.41057932 81.07510936 C-0.37219413 72.22847603 -0.32282763 63.38191426 -0.27259517 54.5353415 C-0.16961799 36.35694689 -0.0802477 18.17850846 0 0 Z " fill="#202020" transform="translate(384,140)"/>
<path d="M0 0 C9.22949695 1.42392547 16.68109883 6.12119619 23 13 C29.89835108 22.55156303 33.14329123 32.21322298 33.16113281 43.96118164 C33.16609772 44.74908585 33.17106262 45.53699005 33.17617798 46.34877014 C33.19076166 48.95257455 33.1976009 51.55631771 33.203125 54.16015625 C33.20595238 55.05734312 33.20877975 55.95452999 33.21169281 56.87890434 C33.22668232 61.64168465 33.23590895 66.40443477 33.24023438 71.16723633 C33.24566989 76.03152058 33.26959282 80.89551789 33.29820633 85.75971317 C33.31707381 89.54443591 33.32205126 93.32909344 33.32357025 97.11385918 C33.32655141 98.90317768 33.33442108 100.69249635 33.34775543 102.48176765 C33.4603718 118.77774501 32.35745213 135.34736982 26.8125 150.8125 C26.35967651 152.11392944 26.35967651 152.11392944 25.89770508 153.44165039 C17.94015439 175.53553184 3.69715438 194.82715704 -15 209 C-15.96421875 209.74121094 -16.9284375 210.48242188 -17.921875 211.24609375 C-40.63074851 227.87429174 -66.53284536 234.31007347 -94.328125 234.29052734 C-96.04439584 234.2965238 -97.760664 234.30333188 -99.47692871 234.31088257 C-104.10499007 234.32843016 -108.73297731 234.33323299 -113.36106873 234.33451414 C-116.2591528 234.33594201 -119.1572184 234.34022344 -122.05529785 234.34550858 C-132.18401269 234.36396736 -142.31267514 234.37218388 -152.44140625 234.37060547 C-161.85502651 234.36940325 -171.26841781 234.39053217 -180.68198013 234.4220928 C-188.79105829 234.4483029 -196.90006182 234.45897087 -205.00918198 234.45769465 C-209.84071686 234.45718667 -214.67204769 234.46277939 -219.50354004 234.48405075 C-224.047679 234.5035148 -228.59142079 234.5035022 -233.13557434 234.48901749 C-234.79470912 234.48693881 -236.45386933 234.49157359 -238.11296082 234.5037384 C-252.80533652 234.60441865 -264.8341644 232.22393229 -276 222 C-280.53726619 216.97445185 -283.71041784 212.32145356 -285.60351562 205.80615234 C-285.86700806 204.9060141 -286.13050049 204.00587585 -286.40197754 203.07846069 C-286.59932495 202.39256866 -286.79667236 201.70667664 -287 201 C-285.94700431 200.99761165 -284.89400862 200.99522329 -283.80910397 200.99276257 C-258.14228304 200.93386841 -232.47555524 200.8579245 -206.80883694 200.76428509 C-194.39641102 200.71939243 -181.98401337 200.67996275 -169.5715332 200.65356445 C-158.74801805 200.63053145 -147.92459287 200.59707436 -137.10114914 200.55129844 C-131.37458832 200.52743767 -125.64811621 200.50866214 -119.92150688 200.50238609 C-114.52147226 200.49630283 -109.1216644 200.47618673 -103.72171402 200.44572449 C-101.74942288 200.43699596 -99.77710205 200.43321081 -97.8047924 200.43499184 C-70.49890095 200.4518506 -46.86299294 193.82972159 -27 174 C-26.24074219 173.25234375 -25.48148437 172.5046875 -24.69921875 171.734375 C-15.85832064 162.51174553 -9.65379777 151.94169012 -5.5625 139.875 C-5.21022339 138.83859375 -5.21022339 138.83859375 -4.85083008 137.78125 C-1.57274593 127.3341014 -0.70341896 116.58378533 -0.68115234 105.69213867 C-0.67110672 104.539319 -0.6610611 103.38649933 -0.65071106 102.19874573 C-0.62014714 98.4384912 -0.60291909 94.67830696 -0.5859375 90.91796875 C-0.56720426 88.29095364 -0.54762928 85.6639444 -0.5272522 83.03694153 C-0.48075022 76.86086343 -0.44386933 70.68476817 -0.41057932 64.50860626 C-0.37215396 57.46848043 -0.32279843 50.42844391 -0.27259517 43.38839376 C-0.1697013 28.92566481 -0.08030471 14.46287183 0 0 Z " fill="#202020" transform="translate(437,193)"/>
</svg>
